#!OML:ASF F:\VICON\USERDATA\INSTALL\rory3\rory3.ASF
:FULLY-SPECIFIED
:DEGREES
18
root 1.95891 17.8901 -15.1475 3.01092 2.88956 -0.855277
lowerback 16.827 0.374656 -0.229409
upperback 1.58261 0.314676 -1.68816
thorax -7.73544 0.132296 -1.75274
lowerneck -2.95581 -1.35601 -0.116705
upperneck -10.6223 -1.53361 3.40423
head -2.84205 -0.854564 1.13821
rclavicle -1.92821e-014 7.15625e-015
rhumerus -42.0027 19.1716 -91.5713
rradius 95.8704
rwrist -2.54303
rhand -31.134 32.5414
rfingers 7.12502
rthumb -4.41253 2.60735
lclavicle -1.92821e-014 7.15625e-015
lhumerus -50.129 -11.7108 91.8183
lradius 109.099
lwrist 29.0436
lhand -36.4505 13.0233
lfingers 7.12502
lthumb -9.54451 42.7872
rfemur 6.46187 0.605549 26.2885
rtibia 77.3364
rfoot 30.5595 -9.62154
rtoes 25.2367
lfemur -27.2703 -2.29777 -20.8653
ltibia 28.9692
lfoot -1.15017 -7.53125
ltoes -14.0964
19
root 1.97301 17.7703 -14.6675 2.59403 3.75469 -0.359173
lowerback 17.3885 0.000686984 -0.587942
upperback 1.54277 -0.261899 -1.77797
thorax -8.10413 -0.136245 -1.51601
lowerneck -2.47617 -1.35069 -0.140963
upperneck -10.4369 -1.54112 3.25697
head -2.86646 -0.855736 1.09808
rclavicle 1.43125e-014 -7.95139e-016
rhumerus -43.0436 18.5973 -91.7332
rradius 94.037
rwrist -2.27106
rhand -31.5368 33.426
rfingers 7.12502
rthumb -4.80151 3.5004
lclavicle 1.43125e-014 -7.95139e-016
lhumerus -48.4582 -12.7808 91.7187
lradius 109.582
lwrist 29.2818
lhand -35.3571 13.4195
lfingers 7.12502
lthumb -8.48936 43.2289
rfemur 4.55657 -1.48843 24.7789
rtibia 82.1425
rfoot 29.1014 -10.9084
rtoes 24.6158
lfemur -26.5062 -3.03617 -21.6024
ltibia 31.9932
lfoot -4.33717 -7.53845
ltoes -11.6738
20
root 1.99214 17.6656 -14.1854 2.42162 5.19037 0.264679
lowerback 17.5112 -0.590617 -0.876631
upperback 1.65236 -1.10621 -1.90814
thorax -8.06854 -0.533836 -1.28842
lowerneck -1.70972 -1.28047 -0.108501
upperneck -11.0227 -1.44061 3.09921
head -3.21085 -0.813337 1.05724
rclavicle -1.19271e-015 -1.98785e-014
rhumerus -43.865 17.8243 -91.7214
rradius 92.2015
rwrist -1.61738
rhand -31.8093 33.6813
rfingers 7.12502
rthumb -5.06457 3.76184
lclavicle -1.19271e-015 -1.98785e-014
lhumerus -46.214 -13.8496 91.5005
lradius 109.916
lwrist 29.1019
lhand -35.2375 14.3884
lfingers 7.12502
lthumb -8.37402 44.2024
rfemur 2.36666 -4.11831 23.0773
rtibia 86.6842
rfoot 27.7944 -11.7366
rtoes 23.0512
lfemur -26.272 -4.40258 -22.5019
ltibia 34.9896
lfoot -6.05697 -7.541
ltoes -11.1882
21
root 1.99129 17.5729 -13.7246 1.23604 2.80024 0.68646
lowerback 18.9983 0.293623 -2.24368
upperback 1.91278 -0.2523 -1.88538
thorax -8.58119 -0.0747321 -0.699686
lowerneck -1.23393 -1.19993 -0.416043
upperneck -11.5385 -1.32046 3.13186
head -3.47979 -0.750136 1.13208
rclavicle 3.37934e-015 1.59028e-015
rhumerus -44.6254 16.8926 -91.4476
rradius 90.7454
rwrist -1.39191
rhand -32.0608 33.9503
rfingers 7.12502
rthumb -5.30747 4.03681
lclavicle 3.37934e-015 1.59028e-015
lhumerus -43.642 -14.7392 91.296
lradius 110.168
lwrist 28.8013
lhand -35.1193 13.1606
lfingers 7.12502
lthumb -8.25989 42.9791
rfemur 0.599589 -2.67443 21.8372
rtibia 91.1776
rfoot 26.6701 -12.462
rtoes 20.1196
lfemur -24.5266 -2.61679 -23.2524
ltibia 37.5689
lfoot -8.58467 -5.82186
ltoes -11.4258
22
root 2.02285 17.4769 -13.2358 1.29999 3.28861 1.51651
lowerback 18.7426 -0.0277036 -2.88293
upperback 2.22077 -0.792618 -1.9762
thorax -8.09477 -0.318364 -0.293282
lowerneck -1.54674 -1.14673 -0.955142
upperneck -11.9838 -1.23762 3.26801
head -3.57635 -0.692078 1.27236
rclavicle 3.18055e-015 2.8625e-014
rhumerus -44.9289 16.0659 -90.9554
rradius 89.3222
rwrist -1.33296
rhand -32.3979 33.858
rfingers 7.12502
rthumb -5.63295 3.95283
lclavicle 3.18055e-015 2.8625e-014
lhumerus -40.5241 -15.5364 90.9719
lradius 110.42
lwrist 28.566
lhand -34.7336 12.6986
lfingers 7.12502
lthumb -7.88769 42.5315
rfemur -2.02047 -4.06628 19.916
rtibia 95.2479
rfoot 25.2222 -12.1998
rtoes 19.3289
lfemur -23.6499 -3.45691 -24.4446
ltibia 39.5456
lfoot -11.1532 -4.41599
ltoes -10.5696
23
root 2.04473 17.4189 -12.7472 1.68635 3.12982 2.72017
lowerback 18.1983 -0.0431699 -4.08487
upperback 2.52045 -1.03571 -2.25973
thorax -7.45219 -0.414409 0.141906
lowerneck -2.36652 -1.10252 -1.37216
upperneck -12.2382 -1.14607 3.56732
head -3.51261 -0.634508 1.43672
rclavicle 6.36111e-015 2.46493e-014
rhumerus -44.9881 15.0229 -90.4988
rradius 87.4542
rwrist -0.728396
rhand -32.4458 33.6118
rfingers 7.12502
rthumb -5.67916 3.70789
lclavicle 6.36111e-015 2.46493e-014
lhumerus -37.1256 -16.6176 90.3593
lradius 110.723
lwrist 28.4532
lhand -33.8911 13.276
lfingers 7.12502
lthumb -7.07447 43.1378
rfemur -5.25659 -4.88712 17.5744
rtibia 99.0368
rfoot 24.3207 -11.5645
rtoes 19.9047
lfemur -22.7122 -3.8375 -25.9765
ltibia 40.9129
lfoot -13.4625 -3.4878
ltoes -6.81572
24
root 2.03539 17.3487 -12.3175 1.71313 3.25626 3.94189
lowerback 18.8663 -0.0277152 -5.49667
upperback 2.61379 -1.35942 -2.53894
thorax -7.6782 -0.529674 0.722805
lowerneck -2.96079 -1.06268 -1.68614
upperneck -12.2252 -1.05649 3.92059
head -3.39962 -0.583413 1.60014
rclavicle -9.34288e-015 -2.70347e-014
rhumerus -45.4099 13.696 -90.1147
rradius 85.2685
rwrist 0.429884
rhand -32.8559 34.0487
rfingers 7.12502
rthumb -6.07508 4.15581
lclavicle -9.34288e-015 -2.70347e-014
lhumerus -33.7758 -17.7788 89.5456
lradius 110.794
lwrist 28.3004
lhand -32.8884 12.2109
lfingers 7.12502
lthumb -6.1065 42.1029
rfemur -8.61425 -6.12979 15.37
rtibia 102.684
rfoot 25.2698 -11.0945
rtoes 26.0192
lfemur -21.6279 -4.29886 -27.4139
ltibia 41.7612
lfoot -14.7159 -2.76032
ltoes -6.58691
25
root 2.03916 17.2925 -11.8732 2.01532 3.0254 4.34406
lowerback 18.9619 -0.00291768 -6.00059
upperback 2.56948 -1.44877 -2.64374
thorax -7.76436 -0.556662 0.916921
lowerneck -3.16609 -1.01137 -1.9489
upperneck -12.3277 -0.956208 4.20381
head -3.40104 -0.530304 1.73871
rclavicle -1.51076e-014 7.15625e-015
rhumerus -46.1867 12.3642 -89.8046
rradius 83.3438
rwrist 1.34591
rhand -33.4781 33.1951
rfingers 7.12502
rthumb -6.67579 3.3203
lclavicle -1.51076e-014 7.15625e-015
lhumerus -30.3355 -18.876 88.6191
lradius 110.638
lwrist 27.9611
lhand -33.0426 12.6137
lfingers 7.12502
lthumb -6.25537 42.5014
rfemur -12.3911 -6.88194 14.4376
rtibia 105.753
rfoot 25.1558 -10.5184
rtoes 28.5711
lfemur -20.5514 -4.68143 -27.911
ltibia 42.144
lfoot -16.0031 -1.87728
ltoes -10.7697
26
root 2.05927 17.2577 -11.4164 2.48184 2.83769 4.21237
lowerback 18.6053 -0.0769481 -5.83846
upperback 2.4614 -1.48549 -2.58195
thorax -7.68841 -0.579123 0.897765
lowerneck -2.75343 -0.917029 -2.20763
upperneck -12.8089 -0.795663 4.46215
head -3.65424 -0.454654 1.88303
rclavicle -2.18663e-015 -1.03368e-014
rhumerus -47.1105 11.0727 -89.368
rradius 81.6702
rwrist 1.68256
rhand -32.858 31.0158
rfingers 7.12502
rthumb -6.0771 1.12298
lclavicle -2.18663e-015 -1.03368e-014
lhumerus -27.1567 -19.9245 87.8785
lradius 110.609
lwrist 27.6897
lhand -33.1572 13.5874
lfingers 7.12502
lthumb -6.366 43.4718
rfemur -16.165 -7.60121 14.2782
rtibia 108.164
rfoot 24.3443 -10.2841
rtoes 32.2294
lfemur -19.3327 -5.13494 -27.8318
ltibia 42.2654
lfoot -17.4031 -1.59851
ltoes -11.977
27
root 2.08591 17.2391 -10.9543 2.95934 2.72078 4.05486
lowerback 18.1321 -0.229498 -5.62226
upperback 2.30204 -1.60468 -2.45852
thorax -7.5991 -0.641731 0.932527
lowerneck -2.33165 -0.784353 -2.37113
upperneck -12.9714 -0.613886 4.51875
head -3.79957 -0.364412 1.93621
rclavicle 1.27222e-014 3.26007e-014
rhumerus -47.9763 10.0128 -88.7703
rradius 79.9905
rwrist 1.8196
rhand -33.6357 32.5586
rfingers 7.12502
rthumb -6.82788 2.68873
lclavicle 1.27222e-014 3.26007e-014
lhumerus -24.6146 -20.7039 87.3792
lradius 110.747
lwrist 27.2081
lhand -33.1587 13.0887
lfingers 7.12502
lthumb -6.36741 42.973
rfemur -19.7431 -8.15857 14.3782
rtibia 109.901
rfoot 23.0824 -10.2009
rtoes 32.2087
lfemur -17.946 -5.49281 -27.7934
ltibia 42.19
lfoot -18.6485 -1.21285
ltoes -14.0702
28
root 2.10283 17.2262 -10.5005 3.17095 2.56979 4.14554
lowerback 18.0945 -0.324028 -5.73073
upperback 2.22363 -1.74647 -2.39269
thorax -7.65057 -0.703495 1.09824
lowerneck -2.29107 -0.639992 -2.25819
upperneck -12.9855 -0.446339 4.25068
head -3.81749 -0.277411 1.82188
rclavicle 1.35174e-014 -5.1684e-015
rhumerus -48.7851 9.06605 -88.2308
rradius 78.3965
rwrist 2.44414
rhand -34.0993 32.8904
rfingers 7.12502
rthumb -7.27545 3.03545
lclavicle 1.35174e-014 -5.1684e-015
lhumerus -22.2038 -21.242 86.8378
lradius 110.941
lwrist 26.4948
lhand -33.0343 12.0284
lfingers 7.12502
lthumb -6.24728 41.9163
rfemur -23.0665 -8.41385 14.3873
rtibia 111.125
rfoot 19.6504 -10.4452
rtoes 22.7382
lfemur -16.0271 -5.54462 -28.0751
ltibia 41.612
lfoot -19.3325 -0.844003
ltoes -16.1829
